<svg xmlns="http://www.w3.org/2000/svg" width="860" height="520" viewBox="0 0 860 520">
  <defs>
    <linearGradient id="bg1" x1="0" y1="0" x2="0" y2="1"><stop offset="0%" stop-color="#0a0e14"/><stop offset="100%" stop-color="#0c1118"/></linearGradient>
  </defs>
  <!-- Window chrome -->
  <rect width="860" height="520" rx="10" fill="#1a1a2e"/>
  <rect width="860" height="34" rx="10" fill="#151525"/>
  <rect y="24" width="860" height="10" fill="#151525"/>
  <circle cx="18" cy="17" r="5" fill="#ff5f57"/><circle cx="34" cy="17" r="5" fill="#febc2e"/><circle cx="50" cy="17" r="5" fill="#28c840"/>
  <rect x="110" y="7" width="520" height="20" rx="10" fill="#0d0d1a"/>
  <text x="370" y="21" fill="#444466" font-size="11" font-family="monospace" text-anchor="middle">192.168.1.1 — LuCI › Network › ISP Recovery</text>

  <!-- Main bg -->
  <rect y="34" width="860" height="486" fill="url(#bg1)"/>

  <!-- Top bar -->
  <rect y="34" width="860" height="38" fill="#0c1018"/>
  <rect y="72" width="860" height="1" fill="#1a3050"/>
  <text x="18" y="59" fill="#00d4ff" font-size="14" font-family="sans-serif" font-weight="bold" letter-spacing="2">OpenWrt</text>
  <text x="110" y="59" fill="#3a5070" font-size="12" font-family="sans-serif">Status</text>
  <text x="162" y="59" fill="#3a5070" font-size="12" font-family="sans-serif">System</text>
  <text x="214" y="59" fill="#00d4ff" font-size="12" font-family="sans-serif">Network ▾</text>
  <text x="278" y="59" fill="#3a5070" font-size="12" font-family="sans-serif">Services</text>

  <!-- Header -->
  <rect x="14" y="80" width="832" height="60" fill="#0e1520" rx="4"/>
  <rect x="14" y="126" width="832" height="14" fill="#0e1520"/>
  <rect x="26" y="91" width="42" height="42" rx="4" fill="rgba(0,212,255,0.08)" stroke="#00d4ff" stroke-width="1.5"/>
  <text x="47" y="118" font-size="22" text-anchor="middle">🔍</text>
  <text x="82" y="108" fill="#00d4ff" font-size="17" font-family="sans-serif" font-weight="bold" letter-spacing="3">WAN CREDENTIAL RECOVERY</text>
  <text x="82" y="126" fill="#3a5070" font-size="10" font-family="monospace" letter-spacing="1">CAPTURE • ANALYSE • APPLY — Universal WAN Credential Recovery for OpenWrt</text>

  <!-- Step track -->
  <g transform="translate(26,152)">
    <circle cx="46" cy="14" r="13" fill="rgba(0,212,255,0.12)" stroke="#00d4ff" stroke-width="2"/>
    <text x="46" y="19" fill="#00d4ff" font-size="12" font-weight="bold" font-family="monospace" text-anchor="middle">1</text>
    <text x="46" y="36" fill="#00d4ff" font-size="8" font-family="monospace" text-anchor="middle">DETECT</text>
    <line x1="59" y1="14" x2="134" y2="14" stroke="#1a3050" stroke-width="1.5" stroke-dasharray="4,3"/>
    <circle cx="148" cy="14" r="13" fill="#0a0e14" stroke="#1a3050" stroke-width="1.5"/>
    <text x="148" y="19" fill="#3a5070" font-size="12" font-weight="bold" font-family="monospace" text-anchor="middle">2</text>
    <text x="148" y="36" fill="#3a5070" font-size="8" font-family="monospace" text-anchor="middle">PREPARE</text>
    <line x1="161" y1="14" x2="236" y2="14" stroke="#1a3050" stroke-width="1.5" stroke-dasharray="4,3"/>
    <circle cx="250" cy="14" r="13" fill="#0a0e14" stroke="#1a3050" stroke-width="1.5"/>
    <text x="250" y="19" fill="#3a5070" font-size="12" font-weight="bold" font-family="monospace" text-anchor="middle">3</text>
    <text x="250" y="36" fill="#3a5070" font-size="8" font-family="monospace" text-anchor="middle">CONNECT</text>
    <line x1="263" y1="14" x2="338" y2="14" stroke="#1a3050" stroke-width="1.5" stroke-dasharray="4,3"/>
    <circle cx="352" cy="14" r="13" fill="#0a0e14" stroke="#1a3050" stroke-width="1.5"/>
    <text x="352" y="19" fill="#3a5070" font-size="12" font-weight="bold" font-family="monospace" text-anchor="middle">4</text>
    <text x="352" y="36" fill="#3a5070" font-size="8" font-family="monospace" text-anchor="middle">CAPTURE</text>
    <line x1="365" y1="14" x2="440" y2="14" stroke="#1a3050" stroke-width="1.5" stroke-dasharray="4,3"/>
    <circle cx="454" cy="14" r="13" fill="#0a0e14" stroke="#1a3050" stroke-width="1.5"/>
    <text x="454" y="19" fill="#3a5070" font-size="12" font-weight="bold" font-family="monospace" text-anchor="middle">5</text>
    <text x="454" y="36" fill="#3a5070" font-size="8" font-family="monospace" text-anchor="middle">AUTO-TEST</text>
    <line x1="467" y1="14" x2="542" y2="14" stroke="#1a3050" stroke-width="1.5" stroke-dasharray="4,3"/>
    <circle cx="556" cy="14" r="13" fill="#0a0e14" stroke="#1a3050" stroke-width="1.5"/>
    <text x="556" y="19" fill="#3a5070" font-size="12" font-weight="bold" font-family="monospace" text-anchor="middle">6</text>
    <text x="556" y="36" fill="#3a5070" font-size="8" font-family="monospace" text-anchor="middle">RESULTS</text>
    <line x1="569" y1="14" x2="644" y2="14" stroke="#1a3050" stroke-width="1.5" stroke-dasharray="4,3"/>
    <circle cx="658" cy="14" r="13" fill="#0a0e14" stroke="#1a3050" stroke-width="1.5"/>
    <text x="658" y="19" fill="#3a5070" font-size="12" font-weight="bold" font-family="monospace" text-anchor="middle">7</text>
    <text x="658" y="36" fill="#3a5070" font-size="8" font-family="monospace" text-anchor="middle">APPLY</text>
  </g>

  <!-- Panel -->
  <rect x="14" y="208" width="832" height="294" fill="#0e1520" stroke="#1a3050" stroke-width="1" rx="4"/>
  <text x="34" y="232" fill="#00d4ff" font-size="14" font-family="sans-serif" font-weight="bold" letter-spacing="2">🖧  STEP 1 — BEFORE YOU BEGIN</text>
  <line x1="14" y1="240" x2="846" y2="240" stroke="#1a3050" stroke-width="1"/>

  <!-- Info box -->
  <rect x="28" y="250" width="804" height="108" fill="rgba(0,212,255,0.04)" rx="3"/>
  <rect x="28" y="250" width="3" height="108" fill="#00d4ff"/>
  <text x="44" y="270" fill="#c0d0e0" font-size="12" font-family="sans-serif">This tool recovers your ISP connection credentials by briefly connecting your ISP router to LAN 1.</text>
  <text x="44" y="292" fill="#c0d0e0" font-size="12" font-family="sans-serif" font-weight="bold">Port assignment — important:</text>
  <text x="44" y="316" font-size="14">🔴</text>
  <text x="66" y="318" fill="#c0d0e0" font-size="12" font-family="sans-serif"><tspan fill="#00ff9d" font-weight="bold">LAN 1</tspan> — reserved for ISP router capture cable only.</text>
  <text x="44" y="340" font-size="14">💻</text>
  <text x="66" y="342" fill="#c0d0e0" font-size="12" font-family="sans-serif"><tspan fill="#00d4ff" font-weight="bold">LAN 2 / LAN 3</tspan> — use for your monitoring laptop.</text>

  <!-- Warning box -->
  <rect x="28" y="366" width="804" height="34" fill="rgba(255,107,53,0.07)" rx="3"/>
  <rect x="28" y="366" width="3" height="34" fill="#ff6b35"/>
  <text x="44" y="387" fill="#ff6b35" font-size="12" font-family="sans-serif">⚠  LAN 1 will be temporarily taken offline during capture. LAN 2, LAN 3 and WiFi stay fully online.</text>

  <!-- Button -->
  <rect x="28" y="412" width="246" height="36" rx="3" fill="#00d4ff"/>
  <text x="151" y="435" fill="#0a0e14" font-size="12" font-family="sans-serif" font-weight="bold" text-anchor="middle" letter-spacing="1">⚡  CHECK INTERFACES &amp; CONTINUE</text>
</svg>
