<svg xmlns="http://www.w3.org/2000/svg" width="860" height="560" viewBox="0 0 860 560">
  <defs>
    <linearGradient id="bg3" x1="0" y1="0" x2="0" y2="1"><stop offset="0%" stop-color="#0a0e14"/><stop offset="100%" stop-color="#0c1118"/></linearGradient>
    <linearGradient id="overallBar" x1="0" y1="0" x2="1" y2="0"><stop offset="0%" stop-color="#00d4ff"/><stop offset="75%" stop-color="#00ff9d"/><stop offset="100%" stop-color="#00d4ff"/></linearGradient>
    <radialGradient id="radarBg3" cx="50%" cy="50%" r="50%"><stop offset="0%" stop-color="rgba(0,212,255,0.08)"/><stop offset="100%" stop-color="rgba(0,212,255,0.01)"/></radialGradient>
  </defs>
  <rect width="860" height="560" rx="10" fill="#1a1a2e"/>
  <rect width="860" height="34" rx="10" fill="#151525"/>
  <rect y="24" width="860" height="10" fill="#151525"/>
  <circle cx="18" cy="17" r="5" fill="#ff5f57"/><circle cx="34" cy="17" r="5" fill="#febc2e"/><circle cx="50" cy="17" r="5" fill="#28c840"/>
  <rect x="110" y="7" width="520" height="20" rx="10" fill="#0d0d1a"/>
  <text x="370" y="21" fill="#444466" font-size="11" font-family="monospace" text-anchor="middle">192.168.1.1 — LuCI › Network › ISP Recovery</text>
  <rect y="34" width="860" height="526" fill="url(#bg3)"/>
  <rect y="34" width="860" height="38" fill="#0c1018"/>
  <rect y="72" width="860" height="1" fill="#1a3050"/>
  <text x="18" y="59" fill="#00d4ff" font-size="14" font-family="sans-serif" font-weight="bold" letter-spacing="2">OpenWrt</text>
  <text x="214" y="59" fill="#00d4ff" font-size="12" font-family="sans-serif">Network ▾</text>

  <rect x="14" y="80" width="832" height="50" fill="#0e1520" rx="4"/>
  <rect x="14" y="116" width="832" height="14" fill="#0e1520"/>
  <text x="82" y="102" fill="#00d4ff" font-size="17" font-family="sans-serif" font-weight="bold" letter-spacing="3">WAN CREDENTIAL RECOVERY</text>
  <text x="82" y="120" fill="#3a5070" font-size="10" font-family="monospace" letter-spacing="1">CAPTURE • ANALYSE • APPLY — Universal WAN Credential Recovery for OpenWrt</text>

  <!-- Step track - step 5 active -->
  <g transform="translate(26,142)">
    <circle cx="46" cy="14" r="13" fill="rgba(0,255,157,0.12)" stroke="#00ff9d" stroke-width="2"/>
    <text x="46" y="19" fill="#00ff9d" font-size="10" font-family="monospace" text-anchor="middle">✓</text>
    <text x="46" y="36" fill="#00ff9d" font-size="8" font-family="monospace" text-anchor="middle">DETECT</text>
    <line x1="59" y1="14" x2="134" y2="14" stroke="#00ff9d" stroke-width="1.5"/>
    <circle cx="148" cy="14" r="13" fill="rgba(0,255,157,0.12)" stroke="#00ff9d" stroke-width="2"/>
    <text x="148" y="19" fill="#00ff9d" font-size="10" font-family="monospace" text-anchor="middle">✓</text>
    <text x="148" y="36" fill="#00ff9d" font-size="8" font-family="monospace" text-anchor="middle">PREPARE</text>
    <line x1="161" y1="14" x2="236" y2="14" stroke="#00ff9d" stroke-width="1.5"/>
    <circle cx="250" cy="14" r="13" fill="rgba(0,255,157,0.12)" stroke="#00ff9d" stroke-width="2"/>
    <text x="250" y="19" fill="#00ff9d" font-size="10" font-family="monospace" text-anchor="middle">✓</text>
    <text x="250" y="36" fill="#00ff9d" font-size="8" font-family="monospace" text-anchor="middle">CONNECT</text>
    <line x1="263" y1="14" x2="338" y2="14" stroke="#00ff9d" stroke-width="1.5"/>
    <circle cx="352" cy="14" r="13" fill="rgba(0,255,157,0.12)" stroke="#00ff9d" stroke-width="2"/>
    <text x="352" y="19" fill="#00ff9d" font-size="10" font-family="monospace" text-anchor="middle">✓</text>
    <text x="352" y="36" fill="#00ff9d" font-size="8" font-family="monospace" text-anchor="middle">CAPTURE</text>
    <line x1="365" y1="14" x2="440" y2="14" stroke="#00d4ff" stroke-width="1.5"/>
    <circle cx="454" cy="14" r="13" fill="rgba(0,212,255,0.12)" stroke="#00d4ff" stroke-width="2"/>
    <text x="454" y="19" fill="#00d4ff" font-size="12" font-weight="bold" font-family="monospace" text-anchor="middle">5</text>
    <text x="454" y="36" fill="#00d4ff" font-size="8" font-family="monospace" text-anchor="middle">AUTO-TEST</text>
    <line x1="467" y1="14" x2="542" y2="14" stroke="#1a3050" stroke-width="1.5" stroke-dasharray="4,3"/>
    <circle cx="556" cy="14" r="13" fill="#0a0e14" stroke="#1a3050" stroke-width="1.5"/>
    <text x="556" y="19" fill="#3a5070" font-size="12" font-weight="bold" font-family="monospace" text-anchor="middle">6</text>
    <text x="556" y="36" fill="#3a5070" font-size="8" font-family="monospace" text-anchor="middle">RESULTS</text>
    <line x1="569" y1="14" x2="644" y2="14" stroke="#1a3050" stroke-width="1.5" stroke-dasharray="4,3"/>
    <circle cx="658" cy="14" r="13" fill="#0a0e14" stroke="#1a3050" stroke-width="1.5"/>
    <text x="658" y="19" fill="#3a5070" font-size="12" font-weight="bold" font-family="monospace" text-anchor="middle">7</text>
    <text x="658" y="36" fill="#3a5070" font-size="8" font-family="monospace" text-anchor="middle">APPLY</text>
  </g>

  <!-- Panel -->
  <rect x="14" y="198" width="832" height="344" fill="#0e1520" stroke="#1a3050" stroke-width="1" rx="4"/>
  <text x="34" y="222" fill="#00d4ff" font-size="14" font-family="sans-serif" font-weight="bold" letter-spacing="2">🔬  STEP 5 — AUTO-TESTING CONNECTION</text>
  <line x1="14" y1="230" x2="846" y2="230" stroke="#1a3050" stroke-width="1"/>

  <!-- Overall progress -->
  <text x="28" y="254" fill="#3a5070" font-size="11" font-family="sans-serif">Testing: PPPoE+VLAN</text>
  <text x="810" y="254" fill="#3a5070" font-size="11" font-family="monospace" text-anchor="end">3 / 8</text>
  <rect x="28" y="260" width="804" height="7" rx="3" fill="#0a0e14"/>
  <rect x="28" y="260" width="301" height="7" rx="3" fill="url(#overallBar)"/>

  <!-- Current attempt radar + status -->
  <circle cx="86" cy="335" r="52" fill="url(#radarBg3)" stroke="#1a3050" stroke-width="1"/>
  <circle cx="86" cy="335" r="38" fill="none" stroke="#0d2040" stroke-width="1"/>
  <circle cx="86" cy="335" r="22" fill="none" stroke="#0d2040" stroke-width="1"/>
  <line x1="86" y1="283" x2="86" y2="387" stroke="#0d2040" stroke-width="1"/>
  <line x1="34" y1="335" x2="138" y2="335" stroke="#0d2040" stroke-width="1"/>
  <line x1="86" y1="335" x2="130" y2="295" stroke="rgba(0,212,255,0.7)" stroke-width="2"/>
  <path d="M86,335 L130,295 A52,52 0 0,0 138,335 Z" fill="rgba(0,212,255,0.1)"/>

  <text x="155" y="304" fill="#c0d0e0" font-size="14" font-family="sans-serif" font-weight="bold">Testing: PPPoE + VLAN</text>
  <text x="155" y="322" fill="#3a5070" font-size="11" font-family="sans-serif">Waiting 30s for interface to establish...</text>
  <rect x="155" y="332" width="490" height="7" rx="3" fill="#0a0e14"/>
  <rect x="155" y="332" width="196" height="7" rx="3" fill="rgba(0,212,255,0.4)"/>
  <text x="155" y="356" fill="#3a5070" font-size="11" font-family="monospace">18s remaining before ping test</text>

  <!-- Attempt list -->
  <!-- Fail row -->
  <rect x="28" y="374" width="804" height="30" rx="3" fill="rgba(255,51,85,0.05)" stroke="rgba(255,51,85,0.2)" stroke-width="1"/>
  <text x="44" y="394" fill="#4a6080" font-size="11" font-family="monospace">1</text>
  <text x="70" y="394" fill="#c0d0e0" font-size="12" font-family="sans-serif">PPPoE</text>
  <text x="340" y="394" fill="#ff3355" font-size="12" font-family="sans-serif" font-weight="bold">✗  FAIL</text>
  <text x="560" y="394" fill="#4a6080" font-size="11" font-family="monospace">—</text>

  <!-- Fail row 2 -->
  <rect x="28" y="408" width="804" height="30" rx="3" fill="rgba(255,51,85,0.05)" stroke="rgba(255,51,85,0.2)" stroke-width="1"/>
  <text x="44" y="428" fill="#4a6080" font-size="11" font-family="monospace">2</text>
  <text x="70" y="428" fill="#c0d0e0" font-size="12" font-family="sans-serif">PPPoE + MAC</text>
  <text x="340" y="428" fill="#ff3355" font-size="12" font-family="sans-serif" font-weight="bold">✗  FAIL</text>
  <text x="560" y="428" fill="#4a6080" font-size="11" font-family="monospace">—</text>

  <!-- Running row -->
  <rect x="28" y="442" width="804" height="30" rx="3" fill="rgba(0,212,255,0.06)" stroke="#00d4ff" stroke-width="1"/>
  <text x="44" y="462" fill="#4a6080" font-size="11" font-family="monospace">3</text>
  <text x="70" y="462" fill="#00d4ff" font-size="12" font-family="sans-serif">⟳  PPPoE + VLAN</text>
  <text x="340" y="462" fill="#00d4ff" font-size="12" font-family="sans-serif" font-weight="bold">TESTING</text>
  <text x="560" y="462" fill="#4a6080" font-size="11" font-family="monospace">...</text>

  <!-- Pending row -->
  <rect x="28" y="476" width="804" height="30" rx="3" fill="rgba(255,255,255,0.02)" stroke="#1a3050" stroke-width="1"/>
  <text x="44" y="496" fill="#2a3a50" font-size="11" font-family="monospace">+5</text>
  <text x="70" y="496" fill="#2a3a50" font-size="12" font-family="sans-serif">more combinations queued...</text>
  <text x="340" y="496" fill="#2a3a50" font-size="12" font-family="sans-serif">PENDING</text>
  <text x="560" y="496" fill="#2a3a50" font-size="11" font-family="monospace">—</text>

  <!-- Max time -->
  <text x="28" y="528" fill="#3a5070" font-size="11" font-family="sans-serif">⏱  Worst case: up to ~5 minutes (8 combinations × 35s each).  You don't need to do anything — just wait.</text>
</svg>
